<svg xmlns="http://www.w3.org/2000/svg" viewBox="0 0 1440 320"><path fill="#0099ff" fill-opacity="1" d="M0,256L48,64L96,192L144,320L192,96L240,160L288,256L336,224L384,32L432,256L480,96L528,128L576,32L624,256L672,96L720,256L768,32L816,224L864,256L912,224L960,128L1008,96L1056,160L1104,64L1152,128L1200,256L1248,96L1296,160L1344,64L1392,0L1440,224L1440,320L1392,320L1344,320L1296,320L1248,320L1200,320L1152,320L1104,320L1056,320L1008,320L960,320L912,320L864,320L816,320L768,320L720,320L672,320L624,320L576,320L528,320L480,320L432,320L384,320L336,320L288,320L240,320L192,320L144,320L96,320L48,320L0,320Z"></path></svg>